# xmcd
#
# Track frame offsets:
# 150
# 17435
# 34665
# 53232
#
# Disc length: 917 seconds
#
#
# Revision: 0
# Processed by: cddbd v1.4PL0 Copyright (c) Steve Scherf et al.
# Submitted via: FreeRIP 2.00 
#
DISCID=25039304
DTITLE=Trisha Yearwood and Aaron Neville - I Fall To Pieces
DYEAR=1994
DGENRE=Country
TTITLE0=I Fall To Pieces (Single Edit)
TTITLE1=I Fall To Pieces (Album Version)
TTITLE2=She's In Love With The Boy
TTITLE3=Nearest Distant Shore
EXTD=
EXTT0=
EXTT1=
EXTT2=
EXTT3=
PLAYORDER=
